<?xml version="1.0" encoding="UTF-8"?>
<svg version="1.1" xmlns="http://www.w3.org/2000/svg" width="100" height="100">
<path d="M0 0 C4.59225513 9.22551253 4.59225513 9.22551253 4 15 C-3.32529792 17.88413437 -10.81569409 20.15893626 -18.34375 22.44921875 C-19.55450195 22.81970337 -20.76525391 23.19018799 -22.01269531 23.57189941 C-26.50762179 24.94652178 -31.00388982 26.31675425 -35.5 27.6875 C-45.565 30.760625 -55.63 33.83375 -66 37 C-29.37 37.495 -29.37 37.495 8 38 C8.020625 48.044375 8.04125 58.08875 8.0625 68.4375 C8.071604 71.6130249 8.08070801 74.7885498 8.09008789 78.06030273 C8.09300677 80.55973264 8.09555539 83.05916302 8.09765625 85.55859375 C8.10277222 86.87057739 8.10788818 88.18256104 8.11315918 89.53430176 C8.11334045 91.39182068 8.11334045 91.39182068 8.11352539 93.28686523 C8.115746 94.36830307 8.11796661 95.44974091 8.12025452 96.56394958 C8 99 8 99 7 100 C4.08342371 100.10058243 1.19049054 100.13615211 -1.7265625 100.12939453 C-2.64193787 100.13114685 -3.55731323 100.13289917 -4.50042725 100.13470459 C-7.54197049 100.13912461 -10.58345611 100.13618459 -13.625 100.1328125 C-15.7286785 100.1334855 -17.83235692 100.13445548 -19.93603516 100.13571167 C-24.35124449 100.13718885 -28.76643363 100.13503345 -33.18164062 100.13037109 C-38.85492561 100.1246738 -44.52816329 100.1279527 -50.20144653 100.13394356 C-54.54728556 100.13754864 -58.89311328 100.13641083 -63.23895264 100.13381577 C-65.3314413 100.13314635 -67.42393097 100.13397543 -69.51641846 100.13629532 C-72.43545266 100.13882098 -75.35440912 100.13498248 -78.2734375 100.12939453 C-79.58414215 100.13243088 -79.58414215 100.13243088 -80.92132568 100.13552856 C-86.88573764 100.11426236 -86.88573764 100.11426236 -88 99 C-88.09353163 97.31198015 -88.11744791 95.62004793 -88.11352539 93.92944336 C-88.11344986 92.84839828 -88.11337433 91.76735321 -88.11329651 90.65354919 C-88.10813522 89.4775264 -88.10297394 88.3015036 -88.09765625 87.08984375 C-88.0962413 85.89267227 -88.09482635 84.69550079 -88.09336853 83.46205139 C-88.08774979 79.62050934 -88.07519411 75.77902457 -88.0625 71.9375 C-88.05748741 69.34049563 -88.05292409 66.74349035 -88.04882812 64.14648438 C-88.03777427 57.76430321 -88.02101792 51.3821557 -88 45 C-88.99 44.67 -89.98 44.34 -91 44 C-92.40603618 41.18792765 -92.24557505 38.75990534 -92.3125 35.625 C-92.34988281 34.48289063 -92.38726562 33.34078125 -92.42578125 32.1640625 C-91.89383194 28.21104469 -91.08056223 27.4724919 -88 25 C-85.39001412 23.93628023 -82.90808188 23.05615547 -80.22143555 22.25097656 C-79.44205627 22.00655319 -78.662677 21.76212982 -77.85968018 21.51029968 C-75.28907195 20.70783468 -72.71326195 19.92380526 -70.13671875 19.140625 C-68.34291212 18.58665423 -66.54936187 18.03185263 -64.75605774 17.47625732 C-60.99840423 16.31514132 -57.23817519 15.16290969 -53.47583008 14.01708984 C-48.66267918 12.55066708 -43.85595886 11.06435055 -39.0509367 9.57153702 C-35.34794327 8.42317002 -31.64202452 7.28449794 -27.93512917 6.14879608 C-26.16213443 5.60453041 -24.38998426 5.05750534 -22.6187191 4.50763702 C-20.13757368 3.7392009 -17.65284453 2.98368478 -15.16674805 2.23144531 C-14.44078934 2.00396103 -13.71483063 1.77647675 -12.96687317 1.542099 C-8.43807309 0.19035296 -4.66495327 -0.21762242 0 0 Z M-15 8 C-12.86735534 10.34590913 -11.02134234 11.9641112 -8 13 C-4.81477796 12.69196545 -4.81477796 12.69196545 -2 12 C-2.27617533 10.05925139 -2.27617533 10.05925139 -3 8 C-7.57166543 4.95222305 -10.08212342 6.25142166 -15 8 Z M-38 16 C-33.23982023 19.27055422 -33.23982023 19.27055422 -27.6875 19.875 C-24.88484401 19.18714884 -24.88484401 19.18714884 -23 17 C-28.4576538 13.88134069 -32.50756388 12.33837592 -38 16 Z M-61 22 C-57.63535943 25.69962052 -57.63535943 25.69962052 -53.02734375 27.046875 C-51.99287109 26.89992188 -51.99287109 26.89992188 -50.9375 26.75 C-50.24527344 26.66234375 -49.55304687 26.5746875 -48.83984375 26.484375 C-46.76834528 26.10419911 -46.76834528 26.10419911 -45 24 C-51.05076267 20.67962683 -54.5019366 19.23486664 -61 22 Z M-84 29 C-83.401875 29.268125 -82.80375 29.53625 -82.1875 29.8125 C-80 31 -80 31 -78.65625 32.625 C-77.06741727 34.26415192 -77.06741727 34.26415192 -74.73828125 33.85546875 C-73.93777344 33.63503906 -73.13726562 33.41460937 -72.3125 33.1875 C-71.50425781 32.97480469 -70.69601563 32.76210938 -69.86328125 32.54296875 C-69.24839844 32.36378906 -68.63351563 32.18460938 -68 32 C-73.72358005 27.33634218 -76.88837002 26.49001295 -84 29 Z M-86 35 C-86.33 36.65 -86.66 38.3 -87 40 C-84.525 40.495 -84.525 40.495 -82 41 C-81.67 39.35 -81.34 37.7 -81 36 C-82.65 35.67 -84.3 35.34 -86 35 Z M-82 49 C-82 49.33 -82 49.66 -82 50 C-77.82840589 50.59594202 -74.40189451 50.99046895 -70.84375 48.4765625 C-67.59943907 45.66599052 -67.59943907 45.66599052 -66 42 C-73.69165814 40.90119169 -77.36438996 42.78440712 -82 49 Z M-58 49 C-58 49.33 -58 49.66 -58 50 C-53.82840589 50.59594202 -50.40189451 50.99046895 -46.84375 48.4765625 C-43.59943907 45.66599052 -43.59943907 45.66599052 -42 42 C-49.69165814 40.90119169 -53.36438996 42.78440712 -58 49 Z M-34 49 C-34 49.33 -34 49.66 -34 50 C-29.82840589 50.59594202 -26.40189451 50.99046895 -22.84375 48.4765625 C-19.59943907 45.66599052 -19.59943907 45.66599052 -18 42 C-25.69165814 40.90119169 -29.36438996 42.78440712 -34 49 Z M-8.71484375 47.37109375 C-10.10323335 48.7850392 -10.10323335 48.7850392 -10 50 C-3.35056313 50.62071214 -3.35056313 50.62071214 2.625 48.25 C4.34763334 45.87062509 4.34763334 45.87062509 4 42 C-2.37820913 41.08882727 -4.61226566 42.90784945 -8.71484375 47.37109375 Z " fill="#D2681D" transform="translate(92,0)"/>
</svg>
