<?xml version="1.0" encoding="UTF-8"?>
<svg version="1.1" xmlns="http://www.w3.org/2000/svg" width="800" height="800">
<path d="M0 0 C1.26549934 -0.01475876 1.26549934 -0.01475876 2.55656433 -0.02981567 C59.28061784 -0.55418105 114.26853535 13.69592655 158.91796875 50.23828125 C161.61869022 48.95708443 163.99700709 47.55142962 166.39453125 45.76953125 C217.21508669 8.59236889 281.24313101 -7.38007859 343.66796875 1.86328125 C355.30391219 3.80319194 366.68656903 6.64769613 377.91796875 10.23828125 C378.80758301 10.52155273 379.69719727 10.80482422 380.61376953 11.09667969 C425.2101282 25.61717064 467.22139746 54.98651408 495.91796875 92.23828125 C496.92116447 93.50186652 497.92512717 94.76484309 498.9296875 96.02734375 C530.78966321 136.42789466 553.42243642 187.21976533 554.91796875 239.23828125 C554.93843262 239.87121094 554.95889648 240.50414062 554.97998047 241.15625 C557.06575859 314.6583815 521.33764009 382.52219935 474.5859375 437.09765625 C472.05588119 440.05744806 469.6090294 443.07956921 467.16796875 446.11328125 C464.17896637 449.78837136 461.09312664 453.19642068 457.67895508 456.47631836 C456.01423782 458.1419588 454.50215508 459.86090587 452.984375 461.66015625 C448.28708871 467.06364754 443.21800453 472.08802111 438.14819336 477.13842773 C436.48370598 478.79755445 434.82463428 480.46196176 433.16601562 482.12695312 C428.14172195 487.15439223 423.09077676 492.10148344 417.68188477 496.71948242 C414.73548806 499.25644213 411.93328865 501.94589635 409.10546875 504.61328125 C404.11251591 509.28512026 399.01228118 513.7362844 393.671875 518.01171875 C391.20638536 520.00509336 388.79264438 522.04798132 386.38989258 524.11621094 C378.86117349 530.58485507 371.02139431 536.59969343 363.10302734 542.58105469 C360.95640762 544.20912784 358.82023879 545.84989064 356.6875 547.49609375 C300.57990839 590.7908419 238.77660847 628.98682484 174.41796875 658.73828125 C173.66668701 659.0938208 172.91540527 659.44936035 172.14135742 659.81567383 C165.51131522 662.78524564 159.37459766 664.41340053 152.359375 661.82421875 C150.72271258 661.11054315 149.09675104 660.37198299 147.48046875 659.61328125 C146.58577881 659.21085205 145.69108887 658.80842285 144.76928711 658.39379883 C75.63832878 626.87377544 9.14590465 584.83975044 -50.08203125 537.23828125 C-50.72237305 536.72410645 -51.36271484 536.20993164 -52.02246094 535.68017578 C-63.77190924 526.22780425 -75.42562514 516.66818126 -86.5703125 506.50390625 C-88.67247504 504.60770987 -90.79449818 502.74145622 -92.9296875 500.8828125 C-103.90943499 491.28975178 -114.32494608 481.09418337 -124.64453125 470.80078125 C-126.03599365 469.41620728 -126.03599365 469.41620728 -127.45556641 468.00366211 C-132.53971535 462.90798971 -137.40036697 457.70373591 -142.08203125 452.23828125 C-143.53648642 450.63059752 -144.9942402 449.0258841 -146.45703125 447.42578125 C-150.71194781 442.69889075 -154.79376338 437.86235987 -158.75976562 432.890625 C-159.68600791 431.73316418 -160.61744857 430.57985304 -161.55273438 429.4296875 C-200.75759217 381.14018484 -233.39871944 320.6918178 -235.08203125 257.23828125 C-235.10249512 256.5829541 -235.12295898 255.92762695 -235.14404297 255.25244141 C-236.79734924 195.93837081 -213.5836877 137.67783506 -176.08203125 92.23828125 C-175.60475586 91.65949219 -175.12748047 91.08070313 -174.63574219 90.484375 C-163.3132366 76.87135616 -151.12958029 64.06576174 -137.08203125 53.23828125 C-136.07914062 52.44164062 -135.07625 51.645 -134.04296875 50.82421875 C-96.61385538 21.23701167 -48.28585629 0.46742966 0 0 Z " fill="#D1681D" transform="translate(240.08203125,82.76171875)"/>
<path d="M0 0 C1.26549934 -0.01475876 1.26549934 -0.01475876 2.55656433 -0.02981567 C59.28061784 -0.55418105 114.26853535 13.69592655 158.91796875 50.23828125 C161.61869022 48.95708443 163.99700709 47.55142962 166.39453125 45.76953125 C217.21508669 8.59236889 281.24313101 -7.38007859 343.66796875 1.86328125 C355.30391219 3.80319194 366.68656903 6.64769613 377.91796875 10.23828125 C378.80758301 10.52155273 379.69719727 10.80482422 380.61376953 11.09667969 C425.2101282 25.61717064 467.22139746 54.98651408 495.91796875 92.23828125 C496.92116447 93.50186652 497.92512717 94.76484309 498.9296875 96.02734375 C530.78966321 136.42789466 553.42243642 187.21976533 554.91796875 239.23828125 C554.93843262 239.87121094 554.95889648 240.50414062 554.97998047 241.15625 C557.06575859 314.6583815 521.33764009 382.52219935 474.5859375 437.09765625 C472.05588119 440.05744806 469.6090294 443.07956921 467.16796875 446.11328125 C464.17896637 449.78837136 461.09312664 453.19642068 457.67895508 456.47631836 C456.01423782 458.1419588 454.50215508 459.86090587 452.984375 461.66015625 C448.28708871 467.06364754 443.21800453 472.08802111 438.14819336 477.13842773 C436.48370598 478.79755445 434.82463428 480.46196176 433.16601562 482.12695312 C428.14172195 487.15439223 423.09077676 492.10148344 417.68188477 496.71948242 C414.73548806 499.25644213 411.93328865 501.94589635 409.10546875 504.61328125 C404.11251591 509.28512026 399.01228118 513.7362844 393.671875 518.01171875 C391.20638536 520.00509336 388.79264438 522.04798132 386.38989258 524.11621094 C378.86117349 530.58485507 371.02139431 536.59969343 363.10302734 542.58105469 C360.95640762 544.20912784 358.82023879 545.84989064 356.6875 547.49609375 C300.57990839 590.7908419 238.77660847 628.98682484 174.41796875 658.73828125 C173.66668701 659.0938208 172.91540527 659.44936035 172.14135742 659.81567383 C165.51131522 662.78524564 159.37459766 664.41340053 152.359375 661.82421875 C150.72271258 661.11054315 149.09675104 660.37198299 147.48046875 659.61328125 C146.58577881 659.21085205 145.69108887 658.80842285 144.76928711 658.39379883 C75.63832878 626.87377544 9.14590465 584.83975044 -50.08203125 537.23828125 C-50.72237305 536.72410645 -51.36271484 536.20993164 -52.02246094 535.68017578 C-63.77190924 526.22780425 -75.42562514 516.66818126 -86.5703125 506.50390625 C-88.67247504 504.60770987 -90.79449818 502.74145622 -92.9296875 500.8828125 C-103.90943499 491.28975178 -114.32494608 481.09418337 -124.64453125 470.80078125 C-126.03599365 469.41620728 -126.03599365 469.41620728 -127.45556641 468.00366211 C-132.53971535 462.90798971 -137.40036697 457.70373591 -142.08203125 452.23828125 C-143.53648642 450.63059752 -144.9942402 449.0258841 -146.45703125 447.42578125 C-150.71194781 442.69889075 -154.79376338 437.86235987 -158.75976562 432.890625 C-159.68600791 431.73316418 -160.61744857 430.57985304 -161.55273438 429.4296875 C-200.75759217 381.14018484 -233.39871944 320.6918178 -235.08203125 257.23828125 C-235.10249512 256.5829541 -235.12295898 255.92762695 -235.14404297 255.25244141 C-236.79734924 195.93837081 -213.5836877 137.67783506 -176.08203125 92.23828125 C-175.60475586 91.65949219 -175.12748047 91.08070313 -174.63574219 90.484375 C-163.3132366 76.87135616 -151.12958029 64.06576174 -137.08203125 53.23828125 C-136.07914062 52.44164062 -135.07625 51.645 -134.04296875 50.82421875 C-96.61385538 21.23701167 -48.28585629 0.46742966 0 0 Z M-26.08203125 70.23828125 C-26.81196289 70.3775 -27.54189453 70.51671875 -28.29394531 70.66015625 C-60.01618907 76.82480281 -89.06570768 92.69815748 -112.08203125 115.23828125 C-113.09839174 116.20502311 -114.11532968 117.1711582 -115.1328125 118.13671875 C-138.91792911 140.97917855 -154.8056553 171.78111835 -162.89453125 203.55078125 C-163.08942139 204.31358398 -163.28431152 205.07638672 -163.48510742 205.86230469 C-166.59834233 218.79821423 -167.45508107 231.46453278 -167.45263672 244.71289062 C-167.45699134 247.33921147 -167.49339829 249.96381999 -167.53125 252.58984375 C-167.63621435 268.37249689 -164.97793729 283.44235021 -160.20703125 298.48828125 C-159.82587158 299.71756348 -159.82587158 299.71756348 -159.43701172 300.97167969 C-155.34067579 313.98000708 -150.42788132 326.22832909 -144.08789062 338.30761719 C-143.13229205 340.14180979 -142.20558501 341.98781105 -141.28515625 343.83984375 C-129.789211 366.61694404 -113.74643739 387.03915961 -97.08203125 406.23828125 C-96.47101563 406.94984375 -95.86 407.66140625 -95.23046875 408.39453125 C-86.67122412 418.29242551 -77.70681877 427.78214854 -68.43774414 437.01293945 C-66.88113736 438.56412852 -65.33002954 440.12067517 -63.77929688 441.67773438 C-58.38503047 447.07558664 -52.89069078 452.2846128 -47.08203125 457.23828125 C-45.47434752 458.69273642 -43.8696341 460.1504902 -42.26953125 461.61328125 C-38.03114282 465.43425263 -33.68324022 469.08075456 -29.24609375 472.66796875 C-26.86918315 474.59008586 -24.51527182 476.53793394 -22.16796875 478.49609375 C-13.36932368 485.82506605 -4.43147798 492.88526384 4.79199219 499.67138672 C7.06100929 501.34370548 9.32183707 503.02671629 11.58203125 504.7109375 C21.54357569 512.11717756 31.6233983 519.30307027 41.91796875 526.23828125 C42.95074951 526.93703369 42.95074951 526.93703369 44.00439453 527.64990234 C72.45856936 546.88167263 101.68328386 565.00324432 131.80078125 581.51367188 C135.09583654 583.33668805 138.36658002 585.19910417 141.63671875 587.06640625 C143.81347261 588.29095044 145.99054539 589.51492793 148.16796875 590.73828125 C149.1744043 591.32125977 150.18083984 591.90423828 151.21777344 592.50488281 C152.15524414 593.0253418 153.09271484 593.54580078 154.05859375 594.08203125 C154.87875977 594.54802734 155.69892578 595.01402344 156.54394531 595.49414062 C159.74051219 596.49610852 160.98010706 595.749263 163.91796875 594.23828125 C164.73692627 593.84286133 165.55588379 593.44744141 166.3996582 593.04003906 C181.21734442 585.44630136 195.72410341 577.46058983 210.03320312 568.94824219 C212.82508483 567.29333871 215.62708161 565.65728737 218.43359375 564.02734375 C257.58430103 541.22783491 295.5824053 515.62018137 330.91796875 487.23828125 C331.87050537 486.47499512 331.87050537 486.47499512 332.84228516 485.69628906 C345.57114762 475.47966123 358.04638725 465.01950613 370.00390625 453.90625 C372.12604056 451.96333079 374.26581352 450.08804314 376.453125 448.22265625 C381.96403074 443.41755833 387.08734839 438.21826553 392.24536133 433.04125977 C393.97691575 431.30434525 395.71375234 429.57284236 397.45117188 427.84179688 C403.15430678 422.14233937 408.70796481 416.39812187 413.91796875 410.23828125 C414.84286217 409.189471 415.76987574 408.14252578 416.69921875 407.09765625 C434.10345199 387.29240105 449.5897824 365.56078461 461.91796875 342.23828125 C462.26843262 341.57586426 462.61889648 340.91344727 462.97998047 340.23095703 C473.25632833 320.63056464 480.78261297 299.99933026 484.91796875 278.23828125 C485.08643311 277.60349854 485.25489746 276.96871582 485.4284668 276.31469727 C487.47376943 267.98316383 487.25443584 259.53496703 487.23364258 251.01049805 C487.23051229 248.33795182 487.25389235 245.66654826 487.27929688 242.99414062 C487.3396881 227.04238744 485.43486249 211.66393423 480.79296875 196.36328125 C480.49366455 195.36353271 480.19436035 194.36378418 479.88598633 193.33374023 C471.43708271 166.01986061 457.35870825 141.3305317 437.43701172 120.80859375 C435.9470945 119.26839003 434.48069983 117.70833615 433.015625 116.14453125 C407.38896166 89.19659428 371.66639027 73.96103297 335.37719727 68.60791016 C333.61102807 68.34245 331.85072018 68.03683347 330.09570312 67.70556641 C326.45120896 67.16964432 322.87035675 67.0585746 319.1953125 67.03515625 C318.09443298 67.02463478 318.09443298 67.02463478 316.97131348 67.01390076 C314.59930275 66.99640801 312.22754173 66.99004319 309.85546875 66.98828125 C309.04562531 66.98760651 308.23578186 66.98693176 307.40139771 66.98623657 C294.69819285 67.00306034 282.37229835 67.52202375 269.91796875 70.23828125 C269.10634277 70.41520508 268.2947168 70.59212891 267.45849609 70.77441406 C236.46044506 77.79215465 210.62553062 93.04755336 188.57592773 115.67236328 C179.86181944 124.59046058 172.80129674 129.22224062 160.04296875 129.55078125 C144.99482272 129.2641499 137.39304256 121.82405151 127.29296875 111.48828125 C116.24574141 100.22878147 103.98055637 91.40808681 89.91796875 84.23828125 C89.26022461 83.90199707 88.60248047 83.56571289 87.92480469 83.21923828 C75.43330521 76.96761572 62.55246259 73.15236184 48.91796875 70.23828125 C48.07991699 70.05894043 47.24186523 69.87959961 46.37841797 69.69482422 C23.07475742 64.98545513 -2.83999862 65.55962479 -26.08203125 70.23828125 Z " fill="#000000" transform="translate(240.08203125,82.76171875)"/>
</svg>
