<?xml version="1.0" encoding="UTF-8"?>
<svg version="1.1" xmlns="http://www.w3.org/2000/svg" width="800" height="800">
<path d="M0 0 C1.26549934 -0.01475876 1.26549934 -0.01475876 2.55656433 -0.02981567 C59.28061784 -0.55418105 114.26853535 13.69592655 158.91796875 50.23828125 C161.61869022 48.95708443 163.99700709 47.55142962 166.39453125 45.76953125 C217.21508669 8.59236889 281.24313101 -7.38007859 343.66796875 1.86328125 C355.30391219 3.80319194 366.68656903 6.64769613 377.91796875 10.23828125 C378.80758301 10.52155273 379.69719727 10.80482422 380.61376953 11.09667969 C425.2101282 25.61717064 467.22139746 54.98651408 495.91796875 92.23828125 C496.92116447 93.50186652 497.92512717 94.76484309 498.9296875 96.02734375 C530.78966321 136.42789466 553.42243642 187.21976533 554.91796875 239.23828125 C554.93843262 239.87121094 554.95889648 240.50414062 554.97998047 241.15625 C557.06575859 314.6583815 521.33764009 382.52219935 474.5859375 437.09765625 C472.05588119 440.05744806 469.6090294 443.07956921 467.16796875 446.11328125 C464.17896637 449.78837136 461.09312664 453.19642068 457.67895508 456.47631836 C456.01423782 458.1419588 454.50215508 459.86090587 452.984375 461.66015625 C448.28708871 467.06364754 443.21800453 472.08802111 438.14819336 477.13842773 C436.48370598 478.79755445 434.82463428 480.46196176 433.16601562 482.12695312 C428.14172195 487.15439223 423.09077676 492.10148344 417.68188477 496.71948242 C414.73548806 499.25644213 411.93328865 501.94589635 409.10546875 504.61328125 C404.11251591 509.28512026 399.01228118 513.7362844 393.671875 518.01171875 C391.20638536 520.00509336 388.79264438 522.04798132 386.38989258 524.11621094 C378.86117349 530.58485507 371.02139431 536.59969343 363.10302734 542.58105469 C360.95640762 544.20912784 358.82023879 545.84989064 356.6875 547.49609375 C300.57990839 590.7908419 238.77660847 628.98682484 174.41796875 658.73828125 C173.66668701 659.0938208 172.91540527 659.44936035 172.14135742 659.81567383 C165.51131522 662.78524564 159.37459766 664.41340053 152.359375 661.82421875 C150.72271258 661.11054315 149.09675104 660.37198299 147.48046875 659.61328125 C146.58577881 659.21085205 145.69108887 658.80842285 144.76928711 658.39379883 C75.63832878 626.87377544 9.14590465 584.83975044 -50.08203125 537.23828125 C-50.72237305 536.72410645 -51.36271484 536.20993164 -52.02246094 535.68017578 C-63.77190924 526.22780425 -75.42562514 516.66818126 -86.5703125 506.50390625 C-88.67247504 504.60770987 -90.79449818 502.74145622 -92.9296875 500.8828125 C-103.90943499 491.28975178 -114.32494608 481.09418337 -124.64453125 470.80078125 C-126.03599365 469.41620728 -126.03599365 469.41620728 -127.45556641 468.00366211 C-132.53971535 462.90798971 -137.40036697 457.70373591 -142.08203125 452.23828125 C-143.53648642 450.63059752 -144.9942402 449.0258841 -146.45703125 447.42578125 C-150.71194781 442.69889075 -154.79376338 437.86235987 -158.75976562 432.890625 C-159.68600791 431.73316418 -160.61744857 430.57985304 -161.55273438 429.4296875 C-200.75759217 381.14018484 -233.39871944 320.6918178 -235.08203125 257.23828125 C-235.10249512 256.5829541 -235.12295898 255.92762695 -235.14404297 255.25244141 C-236.79734924 195.93837081 -213.5836877 137.67783506 -176.08203125 92.23828125 C-175.60475586 91.65949219 -175.12748047 91.08070313 -174.63574219 90.484375 C-163.3132366 76.87135616 -151.12958029 64.06576174 -137.08203125 53.23828125 C-136.07914062 52.44164062 -135.07625 51.645 -134.04296875 50.82421875 C-96.61385538 21.23701167 -48.28585629 0.46742966 0 0 Z M-74.08203125 88.23828125 C-75.29552226 88.88290788 -76.50906338 89.52744017 -77.72265625 90.171875 C-90.13822059 96.89124561 -100.85956368 105.54083468 -111.08203125 115.23828125 C-111.57670898 115.70041016 -112.07138672 116.16253906 -112.58105469 116.63867188 C-141.15344448 143.47034377 -158.32445431 179.93971394 -165.08203125 218.23828125 C-165.42234375 220.12160156 -165.42234375 220.12160156 -165.76953125 222.04296875 C-174.48026553 279.26765365 -151.21345114 333.83675959 -118.08203125 379.23828125 C-109.5893175 390.66912442 -100.60867369 401.65568056 -91.08203125 412.23828125 C-90.5627002 412.81545898 -90.04336914 413.39263672 -89.50830078 413.98730469 C-81.82043906 422.47653028 -73.79089359 430.62844368 -65.70703125 438.73828125 C-64.3159314 440.13639038 -64.3159314 440.13639038 -62.89672852 441.56274414 C-58.33070367 446.1180863 -53.71615528 450.54549497 -48.8203125 454.74511719 C-46.41638774 456.81006155 -44.09714056 458.96304808 -41.76953125 461.11328125 C-36.36726554 466.0345233 -30.76897454 470.65227185 -25.08203125 475.23828125 C-23.89876576 476.21235991 -22.71653072 477.18769125 -21.53515625 478.1640625 C-11.75598292 486.2220613 -1.71297741 493.88017161 8.47119141 501.41796875 C10.70883375 503.08269249 12.93099234 504.7655555 15.1484375 506.45703125 C45.12363416 529.15720046 77.4161607 549.38971499 109.91796875 568.23828125 C110.77181152 568.73537598 111.6256543 569.2324707 112.50537109 569.74462891 C122.65818463 575.64652301 132.90153137 581.37808158 143.22570801 586.97439575 C144.94825338 587.90831492 146.66896952 588.84560546 148.38964844 589.78295898 C149.4418457 590.34958252 150.49404297 590.91620605 151.578125 591.5 C152.51277588 592.00490967 153.44742676 592.50981934 154.41040039 593.0300293 C157.5490701 594.55454768 157.5490701 594.55454768 160.91796875 595.23828125 C163.20469173 594.48726707 163.20469173 594.48726707 165.53125 593.16796875 C166.43705811 592.69077393 167.34286621 592.2135791 168.27612305 591.72192383 C169.73852417 590.92564575 169.73852417 590.92564575 171.23046875 590.11328125 C172.76537964 589.29283325 172.76537964 589.29283325 174.33129883 588.45581055 C177.53619414 586.73323147 180.72872749 584.98965284 183.91796875 583.23828125 C185.34254395 582.45880127 185.34254395 582.45880127 186.79589844 581.66357422 C203.13202016 572.68360178 219.05391714 563.0197176 234.91796875 553.23828125 C235.7780957 552.70912109 236.63822266 552.17996094 237.52441406 551.63476562 C265.81976883 534.17316465 293.23212316 515.32122414 319.57226562 495.04052734 C321.60346675 493.47991882 323.64088282 491.92829934 325.68359375 490.3828125 C332.2347507 485.41512422 338.55838005 480.23276548 344.80078125 474.88671875 C347.62941285 472.4688915 350.5162376 470.13057699 353.41796875 467.80078125 C358.64220354 463.5499119 363.57158355 459.02754591 368.484375 454.42578125 C371.1357499 451.94279853 373.84189921 449.52843394 376.55859375 447.1171875 C382.06732731 442.16953346 387.31831632 436.98962155 392.54174805 431.74487305 C394.11069235 430.1705397 395.68495433 428.60166536 397.25976562 427.03320312 C402.69034713 421.60652048 407.94067424 416.08741767 412.91796875 410.23828125 C413.95072368 409.06948835 414.98586023 407.9027953 416.0234375 406.73828125 C423.81786803 397.91642578 431.02966397 388.78246851 437.91796875 379.23828125 C438.31967285 378.68462891 438.72137695 378.13097656 439.13525391 377.56054688 C473.33736391 330.17014989 494.09348939 275.8375658 484.75244141 216.95605469 C478.49876524 180.94876532 462.27948162 147.63920039 436.91796875 121.23828125 C436.22912598 120.50279053 436.22912598 120.50279053 435.52636719 119.75244141 C404.31922597 86.51182897 360.21792367 68.68979564 314.93701172 67.171875 C270.56332149 65.94353755 229.45511928 78.78193513 196.4375 108.8125 C194.58660933 110.59452031 192.81189263 112.3879585 191.0546875 114.2578125 C183.33426326 122.41925984 174.96896797 129.41790836 163.2890625 130.4765625 C151.81258258 130.76691286 143.63712832 127.5386671 134.91796875 120.23828125 C132.33283059 117.77589355 129.8800206 115.19790414 127.41796875 112.61328125 C97.23847786 81.83939945 56.75684928 67.9326497 14.14038086 67.00610352 C-16.64358631 66.75923659 -47.03866833 73.41616177 -74.08203125 88.23828125 Z " fill="#000000" transform="translate(240.08203125,82.76171875)"/>
</svg>
